<svg width="22" height="22" viewBox="0 0 22 22" fill="none" xmlns="http://www.w3.org/2000/svg">
<path d="M3.66667 16.5C3.40695 16.5 3.18939 16.412 3.014 16.236C2.83861 16.06 2.75061 15.8424 2.75 15.5833C2.74939 15.3242 2.83739 15.1067 3.014 14.9307C3.19061 14.7547 3.40817 14.6667 3.66667 14.6667H18.3333C18.5931 14.6667 18.8109 14.7547 18.9869 14.9307C19.1629 15.1067 19.2506 15.3242 19.25 15.5833C19.2494 15.8424 19.1614 16.0603 18.986 16.2369C18.8106 16.4135 18.5931 16.5012 18.3333 16.5H3.66667ZM3.66667 11.9167C3.40695 11.9167 3.18939 11.8287 3.014 11.6527C2.83861 11.4767 2.75061 11.2591 2.75 11C2.74939 10.7409 2.83739 10.5233 3.014 10.3473C3.19061 10.1713 3.40817 10.0833 3.66667 10.0833H18.3333C18.5931 10.0833 18.8109 10.1713 18.9869 10.3473C19.1629 10.5233 19.2506 10.7409 19.25 11C19.2494 11.2591 19.1614 11.477 18.986 11.6536C18.8106 11.8302 18.5931 11.9179 18.3333 11.9167H3.66667ZM3.66667 7.33333C3.40695 7.33333 3.18939 7.24533 3.014 7.06933C2.83861 6.89333 2.75061 6.67578 2.75 6.41667C2.74939 6.15756 2.83739 5.94 3.014 5.764C3.19061 5.588 3.40817 5.5 3.66667 5.5H18.3333C18.5931 5.5 18.8109 5.588 18.9869 5.764C19.1629 5.94 19.2506 6.15756 19.25 6.41667C19.2494 6.67578 19.1614 6.89364 18.986 7.07025C18.8106 7.24686 18.5931 7.33456 18.3333 7.33333H3.66667Z" fill="black"/>
</svg>
